name C:\Users\antoi\Documents\MyRepositories\upper-imu-dc\Results\main_tracking\Case_80\kinematics.mot
datacolumns 10
datarows 56
range 0.90000000 1.45000000
endheader 
time	clav_prot	clav_elev	scapula_abduction	scapula_elevation	scapula_upward_rot	scapula_winging	plane_elv	shoulder_elv	axial_rot	
          0.90000000	        -22.99064979	         -2.31036532	        -10.00382112	         -4.05571937	         19.02384934	          3.25483687	        -34.02075243	          9.81555042	         60.35716905	
          0.91000000	        -22.90853476	         -2.14236415	         -9.92956976	         -3.94306500	         19.08937432	          3.18738703	        -34.00332209	          9.77118759	         60.26471312	
          0.92000000	        -22.86878074	         -1.96258629	         -9.86126660	         -3.82389617	         19.16676721	          3.11402726	        -33.98283143	          9.72395372	         60.17256310	
          0.93000000	        -22.83040050	         -1.76746319	         -9.79143271	         -3.69653563	         19.25755291	          3.03376218	        -33.95853511	          9.67019184	         60.08125851	
          0.94000000	        -22.79312076	         -1.55647389	         -9.71936502	         -3.56075968	         19.36244667	          2.94647843	        -33.92950024	          9.60907154	         59.99151469	
          0.95000000	        -22.75661735	         -1.32925722	         -9.64429630	         -3.41643799	         19.48206320	          2.85215574	        -33.89471100	          9.53972593	         59.90403463	
          0.96000000	        -22.72058805	         -1.08573480	         -9.56549777	         -3.26362449	         19.61689493	          2.75090370	        -33.85320471	          9.46134331	         59.81948854	
          0.97000000	        -22.68476411	         -0.82609820	         -9.48230867	         -3.10254383	         19.76729634	          2.64295464	        -33.80408108	          9.37319567	         59.73850184	
          0.98000000	        -22.64893455	         -0.55081019	         -9.39417626	         -2.93359185	         19.93348009	          2.52865617	        -33.74655247	          9.27467080	         59.66161739	
          0.99000000	        -22.61296159	         -0.26058851	         -9.30068275	         -2.75732334	         20.11551692	          2.40845680	        -33.67997621	          9.16530061	         59.58925830	
          1.00000000	        -22.57677906	          0.04363238	         -9.20155255	         -2.57442123	         20.31333083	          2.28288681	        -33.60384404	          9.04478803	         59.52176940	
          1.01000000	        -22.54042185	          0.36073634	         -9.09669353	         -2.38567738	         20.52672469	          2.15253333	        -33.51780915	          8.91299335	         59.45931059	
          1.02000000	        -22.50400404	          0.68948681	         -8.98616964	         -2.19194662	         20.75538770	          2.01801446	        -33.42168979	          8.76993565	         59.40199314	
          1.03000000	        -22.46771157	          1.02858298	         -8.87020135	         -1.99410500	         20.99889947	          1.87995875	        -33.31539486	          8.61578091	         59.34983273	
          1.04000000	        -22.43178163	          1.37671780	         -8.74914059	         -1.79300768	         21.25674082	          1.73898543	        -33.19890665	          8.45081953	         59.30282460	
          1.05000000	        -22.39649470	          1.73262194	         -8.62346259	         -1.58945948	         21.52830853	          1.59568991	        -33.07225864	          8.27543636	         59.26094290	
          1.06000000	        -22.36210671	          2.09512614	         -8.49368867	         -1.38415843	         21.81288770	          1.45063956	        -32.93541799	          8.09012358	         59.22430335	
          1.07000000	        -22.32888480	          2.46316386	         -8.36042468	         -1.17770713	         22.10969569	          1.30436600	        -32.78834111	          7.89542485	         59.19302890	
          1.08000000	        -22.29705988	          2.83580424	         -8.22429861	         -0.97058459	         22.41787435	          1.15736567	        -32.63092316	          7.69193782	         59.16737509	
          1.09000000	        -22.26682856	          3.21224946	         -8.08595285	         -0.76315471	         22.73651281	          1.01010036	        -32.46300915	          7.48029265	         59.14770284	
          1.10000000	        -22.23837284	          3.59181613	         -7.94605727	         -0.55568915	         23.06467657	          0.86299825	        -32.28440754	          7.26112080	         59.13436033	
          1.11000000	        -22.21187421	          3.97391009	         -7.80530236	         -0.34839661	         23.40144604	          0.71645168	        -32.09498812	          7.03502505	         59.12769045	
          1.12000000	        -22.18749091	          4.35801636	         -7.66436469	         -0.14142750	         23.74590742	          0.57082438	        -31.89459883	          6.80259175	         59.12801483	
          1.13000000	        -22.16543004	          4.74363420	         -7.52396235	          0.06505679	         24.09722411	          0.42644233	        -31.68328339	          6.56432868	         59.13549925	
          1.14000000	        -22.14592835	          5.13026596	         -7.38482998	          0.27088110	         24.45461779	          0.28359957	        -31.46118383	          6.32068225	         59.15012832	
          1.15000000	        -22.12924573	          5.51740666	         -7.24769683	          0.47584729	         24.81737657	          0.14255575	        -31.22859162	          6.07202996	         59.17174740	
          1.16000000	        -22.11570248	          5.90451483	         -7.11332715	          0.67970637	         25.18487382	          0.00353203	        -30.98599683	          5.81864922	         59.19995616	
          1.17000000	        -22.10567959	          6.29101481	         -6.98252134	          0.88216104	         25.55656592	         -0.13329150	        -30.73410550	          5.56070267	         59.23410515	
          1.18000000	        -22.09951333	          6.67636104	         -6.85600919	          1.08293684	         25.93191373	         -0.26776010	        -30.47364157	          5.29830173	         59.27351942	
          1.19000000	        -22.09761334	          7.05998204	         -6.73459661	          1.28172111	         26.31044015	         -0.39975646	        -30.20554472	          5.03142183	         59.31728918	
          1.20000000	        -22.10030302	          7.44136724	         -6.61899926	          1.47826131	         26.69161586	         -0.52917338	        -29.93075046	          4.76001517	         59.36449250	
          1.21000000	        -22.10605502	          7.81996471	         -6.50664412	          1.67240210	         27.07481612	         -0.65589673	        -29.65019388	          4.48404302	         59.41422702	
          1.22000000	        -22.11868344	          8.19556066	         -6.40476342	          1.86392263	         27.45940708	         -0.77982591	        -29.36472257	          4.20335587	         59.46573928	
          1.23000000	        -22.13644252	          8.56770524	         -6.31062914	          2.05279960	         27.84453009	         -0.90081465	        -29.07527673	          3.91801618	         59.51815191	
          1.24000000	        -22.15922077	          8.93612309	         -6.22467441	          2.23907316	         28.22915963	         -1.01867557	        -28.78256354	          3.62820547	         59.57089565	
          1.25000000	        -22.18689246	          9.30050232	         -6.14738437	          2.42277394	         28.61216527	         -1.13319744	        -28.48732809	          3.33418982	         59.62341078	
          1.26000000	        -22.21919820	          9.66052888	         -6.07913648	          2.60396550	         28.99225970	         -1.24412930	        -28.19023332	          3.03642751	         59.67525030	
          1.27000000	        -22.25579843	         10.01585473	         -6.02025674	          2.78270918	         29.36803480	         -1.35119055	        -27.89186297	          2.73555865	         59.72606263	
          1.28000000	        -22.29627187	         10.36608296	         -5.97098405	          2.95904584	         29.73799477	         -1.45408117	        -27.59279042	          2.43241470	         59.77557666	
          1.29000000	        -22.34019599	         10.71071621	         -5.93151249	          3.13293250	         30.10065572	         -1.55251509	        -27.29368450	          2.12796578	         59.82343163	
          1.30000000	        -22.38708863	         11.04920635	         -5.90187624	          3.30427553	         30.45458091	         -1.64623043	        -26.99510912	          1.82337545	         59.86935492	
          1.31000000	        -22.43648448	         11.38091720	         -5.88199951	          3.47288254	         30.79846479	         -1.73501850	        -26.69769218	          1.51993086	         59.91298944	
          1.32000000	        -22.48794721	         11.70512537	         -5.87170956	          3.63846313	         31.13113642	         -1.81872750	        -26.40213402	          1.21894778	         59.95389473	
          1.33000000	        -22.54100799	         12.02107520	         -5.87067039	          3.80068026	         31.45152851	         -1.89724974	        -26.10908275	          0.92176680	         59.99167124	
          1.34000000	        -22.59520423	         12.32796721	         -5.87841714	          3.95913436	         31.75870959	         -1.97053231	        -25.81918763	          0.62969532	         60.02589648	
          1.35000000	        -22.65010772	         12.62498785	         -5.89439231	          4.11337807	         32.05191607	         -2.03858527	        -25.53310821	          0.34397297	         60.05610748	
          1.36000000	        -22.70528996	         12.91136286	         -5.91791783	          4.26296144	         32.33053785	         -2.10147034	        -25.25143240	          0.06578264	         60.08189776	
          1.37000000	        -22.76032469	         13.18636995	         -5.94820677	          4.40744260	         32.59411541	         -2.15929571	        -24.97464889	         -0.20375287	         60.10292782	
          1.38000000	        -22.81483754	         13.44934195	         -5.98445113	          4.54638679	         32.84234552	         -2.21221667	        -24.70324652	         -0.46360467	         60.11885369	
          1.39000000	        -22.86847213	         13.69969066	         -6.02580665	          4.67939468	         33.07503958	         -2.26041639	        -24.43763346	         -0.71281214	         60.12939074	
          1.40000000	        -22.92089364	         13.93697418	         -6.07142635	          4.80614894	         33.29213728	         -2.30409974	        -24.17816653	         -0.95053332	         60.13433305	
          1.41000000	        -22.97183455	         14.16072532	         -6.12046298	          4.92628940	         33.49369448	         -2.34350657	        -23.92518390	         -1.17598146	         60.13341779	
          1.42000000	        -23.02108210	         14.37066681	         -6.17214984	          5.03956676	         33.67990252	         -2.37889293	        -23.67905237	         -1.38855059	         60.12640509	
          1.43000000	        -23.06848028	         14.56657863	         -6.22575296	          5.14575064	         33.85106550	         -2.41053566	        -23.44012562	         -1.58773888	         60.11302008	
          1.44000000	        -23.11396201	         14.74833960	         -6.28062669	          5.24465111	         34.00763518	         -2.43873920	        -23.20883245	         -1.77321830	         60.09290878	
          1.45000000	        -23.15754551	         14.91593165	         -6.33621337	          5.33612242	         34.15020902	         -2.46383324	        -22.98566285	         -1.94483337	         60.06563723	
